# xmcd CD database file
#
# Track frame offsets:
#	187
#	16150
#	31075
#	45212
#	57912
#	71837
#	85300
#	98762
#	110650
#	122937
#	137500
#	150875
#	162407
#	172562
#	187337
#	200362
#	215212
#	230225
#
# Disc length: 3287 seconds
#
# Revision: 0
# Processed by: cddbd v1.5.1PL0 Copyright (c) Steve Scherf et al.
# Submitted via: CDex 1.51
#
DISCID=f20cd512
DTITLE=ALTO SAX WITH STRINGS - Autumn in New York
DYEAR=1998
DGENRE=Jazz
TTITLE0=AUTUMN IN NEW YORK
TTITLE1=EVERYTHING HAPPENS TO ME
TTITLE2=APRIL IN PARIS
TTITLE3=IF I SHOULD LOSE YOU
TTITLE4=I'LL REMEMBER APRIL
TTITLE5=STELLA BY STRLIGHT
TTITLE6=IN A SENTIMENTAL MOOD
TTITLE7=SOLITUDE
TTITLE8=LOVE IS HERE TO STAY
TTITLE9=SOMEONE TO WATCH OVER ME
TTITLE10=YOU ARE TOO BEAUTIFUL
TTITLE11=FALLING IN LOVE WITH YOU
TTITLE12=STREET OF DREAMS
TTITLE13=BEWITCHED, BOTHERED AND BEWILDERED
TTITLE14=BEAUTIFUL LOVE
TTITLE15=BACK TO MY HOME TOWN
TTITLE16=THEY SAY IT'S WONDERFUL
TTITLE17=ALL OF YOU
EXTD=YEAR: 1998
EXTT0=
EXTT1=
EXTT2=
EXTT3=
EXTT4=
EXTT5=
EXTT6=
EXTT7=
EXTT8=
EXTT9=
EXTT10=
EXTT11=
EXTT12=
EXTT13=
EXTT14=
EXTT15=
EXTT16=
EXTT17=
PLAYORDER=
